<svg id="Layer_1" data-name="Layer 1" xmlns="http://www.w3.org/2000/svg" xmlns:xlink="http://www.w3.org/1999/xlink" viewBox="0 0 635 267"><defs><style>.cls-1{fill:url(#linear-gradient);}.cls-2{fill:url(#linear-gradient-2);}.cls-3{fill:#fcfcfc;}.cls-4{fill:url(#linear-gradient-3);}</style><linearGradient id="linear-gradient" x1="559.26" y1="157.4" x2="559.26" y2="129.8" gradientTransform="matrix(1, 0, 0, -1, 0, 267.89)" gradientUnits="userSpaceOnUse"><stop offset="0" stop-color="#ff854f"/><stop offset="1" stop-color="#ff580e"/></linearGradient><linearGradient id="linear-gradient-2" x1="538.05" y1="157.82" x2="538.05" y2="130.19" gradientTransform="matrix(1, 0, 0, -1, 0, 267.89)" gradientUnits="userSpaceOnUse"><stop offset="0" stop-color="#fe8f5f"/><stop offset="1" stop-color="#ff773c"/></linearGradient><linearGradient id="linear-gradient-3" x1="32.64" y1="106.47" x2="162.36" y2="190.65" gradientTransform="matrix(1, 0, 0, -1, 0, 267.89)" gradientUnits="userSpaceOnUse"><stop offset="0" stop-color="#121214"/><stop offset="0.16" stop-color="#f72881"/><stop offset="1" stop-color="#ff793e"/></linearGradient></defs><path class="cls-1" d="M559.32,116.82c-2.81,0-5.29,0-7.76,0-1.45,0-1.49,0-1.49-1.53s-.54-3.21.22-4.2,2.51-.38,3.83-.4c4.21,0,8.44,0,12.66,0,1.46,0,1.46,0,1.5,1.5,0,.72,0,1.44,0,2.16a3.1,3.1,0,0,1-.95,2.49c-1,1-2,2.14-3,3.24-.31.35-.76.63-.7,1.25.41.51,1,.56,1.57.81,5.26,2.49,5.44,9.72,1.63,13.26a9.37,9.37,0,0,1-5.47,2.53c-3.54.34-7.09.28-10.46-1.26l-1.11-.51c-.84-.37-1.08-.94-.61-1.86a38,38,0,0,0,1.59-3.49c.38-1,.93-1.05,1.71-.59a11,11,0,0,0,6,1.59A3.85,3.85,0,0,0,561,131a2.26,2.26,0,0,0-.91-4.2c-1.07-.13-2.14,0-3.21-.09-1.32-.07-1.42-.22-1.54-1.66-.19-2.18.1-4.09,1.87-5.55a7.67,7.67,0,0,0,2.15-2.71Z"/><path class="cls-2" d="M539.31,131.37H546c2.46,0,2.25-.23,2.22,2.48,0,1.13.47,2.55-.23,3.35s-2.15.33-3.25.34c-4.76,0-9.51,0-14.27,0-1.72,0-1.61,0-1.77-1.92a5.65,5.65,0,0,1,2-5c2.64-2.43,5.1-5.08,7.63-7.64a7.15,7.15,0,0,0,1.67-2.4c.77-2-.19-3.84-2.17-4.1a4.4,4.4,0,0,0-4,1.51,1.55,1.55,0,0,1-2.42.33c-1-.7-2.09-1.3-3.15-1.92-.6-.35-.67-.8-.31-1.41a7.12,7.12,0,0,1,1.91-2.19A12.72,12.72,0,0,1,542.46,111c5,2,6.68,7.7,3.75,12.53a29.85,29.85,0,0,1-5.57,6.18A4.2,4.2,0,0,0,539.31,131.37Z"/><path class="cls-3" d="M423.29,162.64H410.88V138.57c-.76-.21-1,.34-1.29.64-2,2-4,4-6,6-1.47,1.46-1.1,1.58-2.63.06q-3.46-3.43-6.9-6.88c-.11.06-.18.07-.23.11s-.14.08-.14.12q-.06,11.85-.13,23.72c0,.06,0,.11-.17.36H386c-1.34,0-2.68,0-4,0-.65,0-1-.17-1-.95a8.22,8.22,0,0,0,0-.86V110.63l21.14,21,21.09-20.92v52Z"/><path class="cls-3" d="M352,131.63l20.86-20.7a2.5,2.5,0,0,1,.28,1.78q0,24,0,48.1c0,.36,0,.72,0,1.08,0,.66-.28.86-.85.86H361.46c-.58,0-.85-.26-.82-.9s0-1,0-1.51v-22.1a41.07,41.07,0,0,0-4.45,4.19c-1.39,1.34-2.74,2.72-4.19,4.14l-8.27-8.23c-.55.62-.33,1.22-.33,1.74,0,7,0,14,0,20.93,0,1.62.29,1.75-1.64,1.74H332.3c-1.4,0-1.43,0-1.44-1.52,0-5.39,0-10.78,0-16.17v-33c0-.29,0-.58.05-1.09a30.65,30.65,0,0,1,4.23,3.93c1.46,1.38,2.86,2.82,4.29,4.25l4.13,4.1,4.27,4.24,4.19,4.15Z"/><path class="cls-3" d="M250.38,146.7c.31,3.39,2.31,4.81,5.06,5.3a11.87,11.87,0,0,0,7.67-.82,3.73,3.73,0,0,0,2.23-3.32,4,4,0,0,0-2-3.75,9.27,9.27,0,0,0-2.42-1,47.81,47.81,0,0,0-6.13-1.12,51.68,51.68,0,0,1-6.51-1.29,19.6,19.6,0,0,1-3.39-1.3,10.81,10.81,0,0,1-6.27-8.38c-1.35-8.16,1.42-15,9.26-17.95a21.14,21.14,0,0,1,4.28-1.15A30.67,30.67,0,0,1,267.49,113c6.45,2.28,10.12,7.86,9.9,15-.36.43-.86.26-1.29.27-3.29,0-6.57,0-9.85,0-.89,0-1.26-.21-1.44-1.23a4.5,4.5,0,0,0-3.33-3.66,12,12,0,0,0-7.52.07,4.09,4.09,0,0,0-3.06,3.81,4.14,4.14,0,0,0,2.68,4.13,20.87,20.87,0,0,0,6,1.48,62.85,62.85,0,0,1,8.69,1.67,17.41,17.41,0,0,1,3.72,1.58,11,11,0,0,1,5.45,7.6c1.83,8.56-1.73,15.63-9.48,18.33a30.19,30.19,0,0,1-20,0,14.47,14.47,0,0,1-10-13.62c-.05-1.65-.05-1.67,1.49-1.67h10.89Z"/><path class="cls-3" d="M323.3,129.61v13.58a27,27,0,0,1-1.19,8c-1.71,5.48-5.1,9.18-10.22,11a24.4,24.4,0,0,1-15.81.21c-6.39-2-10-6.82-11.41-13.7a30.15,30.15,0,0,1-.51-6q0-14.34,0-28.67c0-1.8,0-1.81,1.57-1.82,3.15,0,6.29,0,9.45,0,1.49,0,1.51,0,1.51,1.69q0,14,0,28a15.63,15.63,0,0,0,.44,4.26,6.8,6.8,0,0,0,13.2,0,16.82,16.82,0,0,0,.47-4.26c0-9.06,0-18.11,0-27.17,0-.5,0-1,0-1.51,0-.7.21-1,.91-1,3.55,0,7.09,0,10.65,0,.66,0,1,.23,1,1,0,.43,0,.86,0,1.29v15.1h0Z"/><path class="cls-3" d="M213,162.63H177.94c-.42-.48-.23-1.08-.23-1.62q0-23.41,0-46.81c0-.36,0-.72,0-1.08,0-.65.3-.89.87-.87h23.32c1.5,0,1.67-.35,1.66,1.73,0,2.66,0,5.33,0,8,0,1-.3,1.35-1.26,1.33-3.55-.05-7.11,0-10.65,0-1.4,0-1.42,0-1.42,1.54,0,1.94.06,3.89,0,5.82-.06,1.22.4,1.43,1.39,1.42,4.83,0,9.65,0,14.47,0,.47,0,.94,0,1.41,0s.82.32.81.93c0,3,0,6,0,9.06,0,1.19-.78.94-1.4.94H193.41c-.6,0-1.21,0-1.81,0-1-.09-1.47.22-1.41,1.43.1,2,.1,4,0,6-.06,1.23.46,1.4,1.42,1.4,6.37,0,12.73,0,19.1,0,.46,0,.93,0,1.4,0,.71,0,.92.36.92,1.06,0,3.22,0,6.45,0,9.77Z"/><path class="cls-3" d="M480.47,162.64H468.14a5.25,5.25,0,0,1-.19-2.35q0-17.26,0-34.52c0-.51,0-1,0-1.52.05-.76-.3-1-.95-1h-5c-1.74,0-3.48,0-5.23,0-.67,0-1-.26-1-1q0-4.55,0-9.06c0-.73.3-1,1-1,.41,0,.81,0,1.21,0h32.36c.34,0,.67,0,1,0,.94-.13,1.3.25,1.29,1.31q-.09,4.21,0,8.41c0,1.06-.33,1.34-1.28,1.32-3.08,0-6.16,0-9.24,0-1.6,0-1.62,0-1.62,1.75v37.62Z"/><path class="cls-3" d="M451.88,162.46a2.88,2.88,0,0,1-1.72.27H431.67c-2.22,0-1.77-.09-1.79-2,0-2.52,0-5,0-7.55,0-1,.2-1.47,1.22-1.38.86.08,1.74,0,2.6,0,.7,0,1-.28.94-1,0-1.3,0-2.59,0-3.88v-22c0-1.63,0-1.61-1.51-1.67-1,0-2.22.45-2.91-.22s-.27-2.17-.3-3.29c-.06-2.08,0-4.17,0-6.25,0-.91.25-1.28,1.14-1.27q9.84,0,19.69,0c.8,0,1.23.19,1.21,1.19,0,2.87,0,5.75,0,8.63,0,.94-.31,1.24-1.16,1.24-1.13,0-2.62-.54-3.3.23-.83.93-.28,2.59-.28,3.93,0,7.47,0,15,0,22.42,0,2.13-.1,1.94,1.87,1.95s2.88,1,2.88,3v7.62Z"/><path class="cls-3" d="M522.55,111.6c.26.67-.09,1-.26,1.34-3.54,7.55-7.13,15.07-10.63,22.64a2.19,2.19,0,0,1-2.45,1.55c-1.6-.11-3.2,0-4.77,0-.39-.78,0-1.36.13-2,1.55-7.33,3.16-14.65,4.68-22,.24-1.18.58-1.65,1.8-1.62,3.85.11,7.71,0,11.5,0Z"/><path class="cls-3" d="M232.74,146.68H219.32c-2.43,0-2.46,0-2.43-2.62,0-3.25-.42-2.8,2.69-2.81,3.81,0,7.63,0,11.44,0,1.71,0,1.71,0,1.71,1.9v3.53Z"/><path class="cls-4" d="M153.41,40.05c-.42,2-.82,4-1.26,6q-1.67,7.62-3.36,15.24c-1,4.31-2,8.6-2.95,12.92A3.07,3.07,0,0,1,144.29,76c-2.82,2-5.66,4-8.5,6q-6.85,4.88-13.69,9.74c-16.72,12.09-33.74,23.59-50.82,35.08-6.7,4.51-13.66,13.35-4.61,20.13.69.52.66,1,.07,1.52-8.7,8.18-6.37,26.71-4.61,37.54a4.61,4.61,0,0,1,0,2,7.37,7.37,0,0,1-3.39-1.73C34.83,169.43,35.66,131.69,50.78,109,55.36,102.13,61.43,97.15,68,92.73A135.15,135.15,0,0,1,88.63,81.27c4.37-2,8.85-3.66,13.27-5.49a134.67,134.67,0,0,0,22-12,151.8,151.8,0,0,0,16.19-12.66c4-3.47,8-7,12-10.49.36-.31.63-.79,1.37-.59Z"/><path class="cls-3" d="M121.66,190.4a26.65,26.65,0,0,1-8.75,5.43,50.09,50.09,0,0,1-22.62,4c-6.94-.44-13.28-2.71-18.34-8.11A22.53,22.53,0,0,1,66.08,179c-1.86-14,2.2-26.08,11.14-36.32,2.58-3,5.81-5.06,9-7.22q19.64-13.45,39.25-26.94,9-6.15,18-12.28c.37-.26.7-.68,1.25-.56.5.43.31,1,.31,1.6,0,7.19,0,14.39,0,21.57a3.42,3.42,0,0,1-1.3,2.92q-14.81,12.39-29.54,24.9c-6.37,5.38-12.74,10.73-19.09,16.15a12.29,12.29,0,0,0,0,18.54,29.84,29.84,0,0,0,11.09,5.83,73,73,0,0,0,12.78,2.75c.8.1,1.58.3,2.77.53Z"/><path class="cls-3" d="M144.69,141.58c-.46-.22-.72.23-1,.49-3.14,2.69-6.32,5.33-9.39,8.11-1,.87-2.28,1.38-2.79,2.79l-1.83,1.54c-1.73.74-2.92,2.21-4.19,3.57l-1.78,1.6c-.3-.11-.31-.09-.26.24L115.24,167c-.27-.16-.34-.09-.24.22q-5.76,5-11.52,10c-1.33,1.15-1.33,1.51,0,2.62A21.3,21.3,0,0,0,109.7,184c0,.33,0,.34.31.17l1.69.63c-.14.09-.13.22,0,.29s.25,0,.2-.18l1.41.38c.08.48.26.49.55.15l4,.58a.61.61,0,0,0-.12.16s.07.12.11.12c1-.09,2.07.44,3-.29l4-.57a2.69,2.69,0,0,0,2.53-.63l1-.64c0,.17.13.2.27.08s.14-.23,0-.33c.19-.18.37-.37.57-.55a9.23,9.23,0,0,0,3.34-3.68l.74-1c.38.22.46-.19.59-.37a47.33,47.33,0,0,0,5.29-9.13,69.84,69.84,0,0,0,5.23-19.35c.3-2.34.43-4.72.64-7.07,0-.42.1-.92-.36-1.14Z"/></svg>