<svg id="Layer_1" data-name="Layer 1" xmlns="http://www.w3.org/2000/svg" xmlns:xlink="http://www.w3.org/1999/xlink" viewBox="0 0 400 400"><defs><style>.cls-1{fill:url(#linear-gradient);}.cls-2{fill:#fcfcfc;}</style><linearGradient id="linear-gradient" x1="67.35" y1="115.02" x2="335.93" y2="289.32" gradientTransform="matrix(1, 0, 0, -1, 0, 400.89)" gradientUnits="userSpaceOnUse"><stop offset="0" stop-color="#121214"/><stop offset="0.16" stop-color="#f72881"/><stop offset="1" stop-color="#ff793e"/></linearGradient></defs><path class="cls-1" d="M317.4,34.57c-.87,4.12-1.7,8.23-2.6,12.33-2.31,10.52-4.6,21-7,31.55-2,8.92-4.16,17.8-6.11,26.76-.45,2.06-1.89,2.86-3.21,3.83-5.84,4.21-11.72,8.35-17.61,12.52q-14.18,10.08-28.34,20.17c-34.61,25-69.84,48.82-105.22,72.62-13.86,9.33-28.28,27.64-9.54,41.68,1.44,1.08,1.37,2,.16,3.15-18,16.93-13.19,55.29-9.54,77.71a9.76,9.76,0,0,1-.07,4.19c-2.81-.34-4.9-2.05-7-3.58-49.43-35-47.71-113.18-16.41-160.17,9.49-14.22,22-24.52,35.6-33.69a279.92,279.92,0,0,1,42.76-23.72c9.06-4,18.32-7.58,27.48-11.36,16-6.57,30.9-15.35,45.49-24.82C268.09,76,279,66.84,289.76,57.51c8.31-7.18,16.48-14.54,24.78-21.71.72-.63,1.28-1.64,2.82-1.23Z"/><path class="cls-2" d="M251.67,345.87c-5.71,5.51-11.82,8.64-18.12,11.24a104.09,104.09,0,0,1-46.84,8.22c-14.36-.91-27.47-5.61-38-16.8a46.64,46.64,0,0,1-12.16-26.35c-3.86-29.07,4.54-54,23.07-75.2,5.34-6.13,12-10.46,18.58-14.95q40.65-27.85,81.26-55.78,18.56-12.74,37.16-25.42c.78-.54,1.46-1.41,2.6-1.15,1,.89.64,2.18.64,3.31,0,14.88,0,29.78,0,44.66a7,7,0,0,1-2.69,6q-30.64,25.68-61.15,51.57c-13.18,11.13-26.39,22.22-39.52,33.43-11.71,10-11.65,28.19-.07,38.38,6.79,6,14.7,9.48,23,12.07A150.16,150.16,0,0,0,246,344.82c1.65.21,3.26.62,5.72,1.1Z"/><path class="cls-2" d="M299.36,244.78c-1-.44-1.49.49-2.12,1-6.51,5.57-13.08,11-19.45,16.78-2,1.8-4.72,2.86-5.77,5.77-1.27,1.06-2.52,2.12-3.79,3.2-3.57,1.53-6.05,4.57-8.67,7.4q-1.85,1.64-3.69,3.31c-.63-.24-.65-.2-.54.48q-8.46,7.32-17,14.62c-.56-.33-.71-.18-.5.47Q226,308.18,214,318.51c-2.74,2.38-2.74,3.13-.09,5.42,4,3.43,8,6.76,13,8.58.07.69.09.71.64.36l3.49,1.3c-.28.19-.26.45.09.6s.52-.06.41-.38l2.92.79c.17,1,.55,1,1.14.31,2.76.4,5.52.81,8.28,1.19-.09.12-.21.21-.24.34s.13.24.22.24c2.1-.17,4.28.92,6.28-.59l8.21-1.18c2,.67,3.64-.16,5.24-1.3.65-.45,1.33-.88,2-1.32.07.35.26.41.55.15s.3-.47,0-.67c.4-.38.78-.77,1.18-1.14a19.35,19.35,0,0,0,6.93-7.62c.5-.67,1-1.34,1.52-2,.78.45,1-.41,1.24-.76a99.93,99.93,0,0,0,10.94-18.9,145.15,145.15,0,0,0,10.83-40.08c.62-4.84.9-9.76,1.32-14.63.06-.88.2-1.9-.73-2.35Z"/></svg>