<svg width="635" height="267" viewBox="0 0 635 267" fill="none" xmlns="http://www.w3.org/2000/svg">
<g filter="url(#filter0_d_78_18)">
<path d="M153.408 40.046C152.989 42.0339 152.587 44.0217 152.151 46.0005C151.037 51.0826 149.931 56.1646 148.791 61.2376C147.819 65.5461 146.78 69.8366 145.842 74.163C145.624 75.1614 144.928 75.5482 144.291 76.0159C141.468 78.0488 138.627 80.0456 135.786 82.0604C131.22 85.3075 126.653 88.5456 122.095 91.8017C105.378 103.891 88.3602 115.386 71.275 126.881C64.58 131.387 57.6169 140.229 66.6664 147.011C67.3619 147.533 67.3284 147.983 66.7418 148.531C58.0442 156.708 60.3736 175.237 62.1333 186.066C62.2338 186.696 62.3008 187.335 62.0997 188.09C60.7423 187.928 59.7368 187.101 58.7062 186.363C34.8338 169.435 35.6633 131.693 50.7794 109C55.3629 102.128 61.4294 97.1536 67.9736 92.7282C74.5512 88.2758 81.4557 84.471 88.6283 81.2689C93.0023 79.317 97.4768 77.608 101.901 75.7821C109.61 72.6069 116.824 68.3704 123.871 63.7921C129.594 60.0683 134.848 55.6339 140.06 51.1275C144.074 47.6556 148.02 44.1026 152.025 40.6397C152.377 40.3339 152.645 39.8481 153.391 40.046H153.408Z" fill="url(#paint0_linear_78_18)"/>
</g>
<g filter="url(#filter1_d_78_18)">
<path d="M121.659 190.402C118.902 193.064 115.953 194.575 112.911 195.835C105.638 198.848 98.0799 200.296 90.2873 199.801C83.3493 199.361 77.0146 197.094 71.9535 191.688C68.6521 188.171 66.7249 183.827 66.0797 178.961C64.2195 164.92 68.2751 152.876 77.2241 142.64C79.8049 139.681 83.0309 137.585 86.1982 135.417C99.2865 126.449 112.358 117.455 125.446 108.478C131.421 104.376 137.404 100.284 143.395 96.2001C143.772 95.9392 144.099 95.5165 144.652 95.6424C145.154 96.0741 144.962 96.6948 144.962 97.2435C144.978 104.43 144.953 111.626 144.987 118.813C144.987 120.063 144.652 120.918 143.688 121.727C133.817 129.993 123.988 138.322 114.151 146.634C107.783 152.012 101.406 157.364 95.0634 162.779C89.4074 167.6 89.4326 176.397 95.0299 181.317C98.3062 184.196 102.127 185.896 106.124 187.146C110.305 188.45 114.57 189.367 118.902 189.898C119.698 189.997 120.478 190.195 121.667 190.429L121.659 190.402Z" fill="#FCFCFC"/>
</g>
<g filter="url(#filter2_d_78_18)">
<path d="M423.286 162.644H410.876V138.574C410.122 138.358 409.904 138.907 409.594 139.213C407.575 141.21 405.572 143.234 403.553 145.23C402.078 146.688 402.455 146.813 400.922 145.293C398.609 143 396.313 140.697 394.025 138.412C393.908 138.466 393.841 138.484 393.791 138.52C393.741 138.556 393.648 138.601 393.648 138.637C393.607 146.544 393.565 154.45 393.523 162.356C393.523 162.419 393.472 162.473 393.347 162.725C390.975 162.725 388.504 162.725 386.032 162.725C384.691 162.725 383.35 162.698 382.01 162.725C381.356 162.743 380.979 162.554 381.054 161.772C381.08 161.484 381.054 161.196 381.054 160.908C381.054 144.727 381.054 128.545 381.054 112.373V110.628C388.244 117.77 395.132 124.605 402.187 131.603C409.167 124.677 416.105 117.796 423.277 110.682V162.617L423.286 162.644Z" fill="#FCFCFC"/>
</g>
<g filter="url(#filter3_d_78_18)">
<path d="M352.02 131.63C359.009 124.695 365.913 117.841 372.876 110.933C373.345 111.59 373.161 112.184 373.161 112.714C373.178 128.743 373.169 144.781 373.169 160.809C373.169 161.169 373.153 161.529 373.169 161.889C373.203 162.554 372.885 162.752 372.315 162.752C368.695 162.743 365.084 162.743 361.464 162.752C360.877 162.752 360.609 162.491 360.643 161.853C360.668 161.349 360.643 160.845 360.643 160.342C360.643 153.802 360.643 147.254 360.643 140.715V138.241C358.841 139.546 357.593 141.084 356.193 142.433C354.802 143.773 353.445 145.149 352.004 146.571C349.213 143.791 346.482 141.075 343.733 138.34C343.18 138.961 343.398 139.564 343.398 140.085C343.381 147.056 343.39 154.036 343.381 161.007C343.381 162.626 343.666 162.761 341.739 162.752C338.588 162.743 335.446 162.752 332.296 162.752C330.896 162.752 330.871 162.716 330.863 161.232C330.854 155.844 330.863 150.447 330.863 145.059C330.863 134.059 330.863 123.058 330.863 112.058C330.863 111.77 330.888 111.482 330.913 110.969C332.606 112.085 333.779 113.614 335.145 114.9C336.603 116.276 338.002 117.724 339.426 119.146C340.801 120.513 342.175 121.88 343.557 123.247C344.982 124.659 346.406 126.081 347.831 127.493C349.205 128.851 350.579 130.218 352.02 131.639V131.63Z" fill="#FCFCFC"/>
</g>
<g filter="url(#filter4_d_78_18)">
<path d="M250.381 146.705C250.691 150.087 252.693 151.509 255.442 152.003C258.056 152.471 260.653 152.417 263.109 151.176C264.399 150.528 265.279 149.458 265.337 147.857C265.396 146.202 264.709 144.952 263.377 144.115C262.623 143.638 261.818 143.314 260.963 143.072C258.944 142.505 256.883 142.253 254.83 141.947C252.643 141.614 250.464 141.282 248.319 140.661C247.146 140.328 246.023 139.896 244.926 139.357C241.515 137.693 239.312 134.958 238.658 130.983C237.309 122.824 240.082 115.979 247.917 113.029C249.308 112.508 250.732 112.103 252.199 111.878C257.369 111.068 262.48 111.176 267.491 112.957C273.943 115.242 277.613 120.819 277.387 127.942C277.026 128.374 276.532 128.203 276.096 128.212C272.812 128.23 269.527 128.194 266.251 128.239C265.363 128.248 264.994 128.032 264.809 127.007C264.474 125.064 263.209 123.886 261.483 123.355C258.978 122.582 256.447 122.582 253.958 123.418C252.031 124.066 250.959 125.469 250.9 127.232C250.833 129.328 251.922 130.569 253.581 131.36C255.5 132.278 257.578 132.53 259.623 132.845C262.539 133.294 265.463 133.654 268.312 134.509C269.611 134.895 270.851 135.417 272.032 136.092C274.915 137.738 276.741 140.256 277.479 143.692C279.306 152.246 275.753 159.325 268.002 162.023C261.382 164.326 254.646 164.245 248.026 162.023C241.917 159.964 238.222 154.729 238.004 148.396C237.946 146.75 237.946 146.732 239.488 146.732C243.099 146.723 246.719 146.732 250.381 146.732V146.705Z" fill="#FCFCFC"/>
</g>
<g filter="url(#filter5_d_78_18)">
<path d="M323.305 129.607C323.305 134.131 323.305 138.664 323.305 143.189C323.305 145.941 322.919 148.621 322.107 151.23C320.397 156.708 317.012 160.414 311.892 162.212C306.647 164.056 301.343 164.083 296.081 162.419C289.687 160.405 286.068 155.601 284.668 148.72C284.266 146.742 284.157 144.736 284.157 142.721C284.149 133.16 284.149 123.607 284.157 114.046C284.157 112.247 284.174 112.238 285.732 112.229C288.883 112.22 292.025 112.211 295.176 112.229C296.667 112.229 296.692 112.265 296.692 113.92C296.701 123.265 296.692 132.602 296.692 141.947C296.692 143.387 296.743 144.817 297.128 146.211C298.025 149.521 300.363 151.356 303.723 151.356C307.049 151.356 309.471 149.485 310.325 146.211C310.686 144.826 310.795 143.396 310.795 141.947C310.778 132.89 310.795 123.841 310.795 114.783C310.795 114.28 310.811 113.776 310.795 113.272C310.761 112.571 311.013 112.22 311.708 112.22C315.261 112.238 318.805 112.238 322.358 112.22C323.02 112.22 323.363 112.454 323.33 113.209C323.313 113.641 323.33 114.073 323.33 114.504C323.33 119.532 323.33 124.57 323.33 129.598H323.322L323.305 129.607Z" fill="#FCFCFC"/>
</g>
<g filter="url(#filter6_d_78_18)">
<path d="M213.018 162.635H177.942C177.524 162.149 177.708 161.547 177.708 161.007C177.699 145.401 177.699 129.795 177.699 114.199C177.699 113.839 177.708 113.479 177.699 113.119C177.683 112.472 178.001 112.229 178.571 112.247C178.839 112.247 179.107 112.247 179.375 112.247C186.883 112.247 194.382 112.247 201.89 112.247C203.39 112.247 203.558 111.905 203.549 113.983C203.533 116.645 203.507 119.308 203.566 121.961C203.591 123.004 203.273 123.31 202.309 123.292C198.756 123.238 195.204 123.256 191.659 123.274C190.26 123.274 190.243 123.31 190.235 124.812C190.218 126.755 190.302 128.698 190.201 130.632C190.143 131.846 190.603 132.062 191.592 132.053C196.419 132.017 201.237 132.035 206.063 132.035C206.532 132.035 207.002 132.053 207.471 132.035C208.074 132.017 208.292 132.35 208.284 132.962C208.275 135.984 208.267 139.006 208.284 142.019C208.284 143.207 207.504 142.964 206.876 142.964C202.385 142.973 197.902 142.964 193.411 142.964C192.807 142.964 192.204 143.009 191.601 142.955C190.603 142.865 190.134 143.171 190.193 144.385C190.285 146.391 190.285 148.414 190.193 150.42C190.134 151.653 190.645 151.823 191.609 151.823C197.977 151.787 204.337 151.805 210.705 151.805C211.174 151.805 211.644 151.832 212.113 151.805C212.825 151.769 213.026 152.156 213.026 152.858C213.009 156.078 213.026 159.307 213.026 162.626L213.018 162.635Z" fill="#FCFCFC"/>
</g>
<g filter="url(#filter7_d_78_18)">
<path d="M480.474 162.644H468.139C467.779 161.853 467.955 161.061 467.955 160.288C467.938 148.783 467.947 137.279 467.947 125.766C467.947 125.262 467.922 124.758 467.947 124.255C467.997 123.49 467.653 123.256 467 123.256C465.324 123.274 463.648 123.256 461.972 123.256C460.229 123.256 458.487 123.229 456.744 123.265C456.065 123.274 455.772 123.004 455.772 122.276C455.78 119.254 455.78 116.231 455.772 113.218C455.772 112.49 456.065 112.175 456.744 112.229C457.146 112.256 457.548 112.229 457.95 112.229C468.734 112.229 479.527 112.229 490.311 112.229C490.646 112.229 490.981 112.265 491.316 112.229C492.263 112.103 492.623 112.481 492.607 113.542C492.548 116.348 492.548 119.155 492.607 121.952C492.632 123.013 492.28 123.292 491.333 123.274C488.25 123.22 485.166 123.247 482.091 123.256C480.49 123.256 480.474 123.274 480.474 125.01C480.474 136.73 480.474 148.45 480.474 160.18V162.626V162.644Z" fill="#FCFCFC"/>
</g>
<g filter="url(#filter8_d_78_18)">
<path d="M451.884 162.464C451.23 162.842 450.686 162.734 450.158 162.734C443.999 162.734 437.84 162.734 431.673 162.734C429.453 162.734 429.897 162.644 429.88 160.728C429.863 158.21 429.905 155.7 429.855 153.182C429.838 152.192 430.056 151.707 431.078 151.796C431.941 151.877 432.821 151.787 433.684 151.814C434.38 151.841 434.639 151.527 434.623 150.798C434.589 149.503 434.623 148.208 434.623 146.921C434.623 139.591 434.623 132.26 434.623 124.929C434.623 123.301 434.606 123.319 433.114 123.256C432.126 123.22 430.886 123.706 430.198 123.04C429.411 122.267 429.93 120.873 429.897 119.748C429.838 117.67 429.914 115.584 429.863 113.497C429.847 112.588 430.115 112.22 431.003 112.229C437.564 112.256 444.125 112.256 450.686 112.229C451.49 112.229 451.917 112.418 451.901 113.425C451.85 116.294 451.859 119.173 451.901 122.051C451.917 122.995 451.591 123.292 450.736 123.292C449.613 123.292 448.122 122.753 447.443 123.517C446.613 124.453 447.158 126.108 447.158 127.448C447.125 134.922 447.141 142.397 447.141 149.872C447.141 152.003 447.041 151.814 449.01 151.823C450.931 151.829 451.892 152.837 451.892 154.846C451.892 157.418 451.892 159.991 451.892 162.473L451.884 162.464Z" fill="#FCFCFC"/>
</g>
<g filter="url(#filter9_d_78_18)">
<path d="M559.322 116.825C556.507 116.825 554.035 116.843 551.563 116.825C550.114 116.807 550.072 116.78 550.072 115.287C550.072 113.857 549.527 112.076 550.289 111.086C551.094 110.034 552.803 110.709 554.119 110.691C558.334 110.637 562.557 110.664 566.78 110.682C568.238 110.682 568.238 110.718 568.28 112.184C568.296 112.903 568.254 113.623 568.288 114.342C568.347 115.35 568.02 116.132 567.341 116.834C566.327 117.877 565.364 118.975 564.392 120.072C564.082 120.423 563.629 120.702 563.688 121.322C564.098 121.835 564.727 121.88 565.263 122.132C570.517 124.623 570.701 131.855 566.889 135.39C565.322 136.838 563.445 137.72 561.425 137.918C557.881 138.259 554.328 138.205 550.96 136.658C550.591 136.487 550.222 136.317 549.854 136.155C549.007 135.777 548.773 135.21 549.242 134.293C549.82 133.159 550.365 131.999 550.826 130.803C551.211 129.786 551.756 129.75 552.543 130.209C554.395 131.307 556.39 131.846 558.509 131.801C559.398 131.783 560.244 131.621 560.965 131.028C561.677 130.434 562.322 129.759 562.062 128.68C561.802 127.61 561.065 126.944 560.06 126.827C558.995 126.701 557.923 126.791 556.85 126.737C555.526 126.674 555.434 126.521 555.309 125.082C555.116 122.905 555.409 120.99 557.177 119.532C557.94 118.903 558.677 118.147 559.331 116.825H559.322Z" fill="url(#paint1_linear_78_18)"/>
</g>
<g filter="url(#filter10_d_78_18)">
<path d="M539.313 131.37C541.776 131.37 543.896 131.37 546.024 131.37C548.479 131.379 548.27 131.145 548.245 133.852C548.236 134.985 548.706 136.398 548.01 137.198C547.231 138.089 545.857 137.531 544.759 137.54C540 137.585 535.249 137.567 530.489 137.558C528.771 137.558 528.88 137.522 528.721 135.642C528.537 133.528 529.182 132.008 530.69 130.614C533.33 128.176 535.793 125.532 538.324 122.968C539.011 122.276 539.614 121.52 539.991 120.567C540.762 118.597 539.799 116.726 537.821 116.474C536.262 116.276 534.855 116.771 533.799 117.985C532.995 118.921 532.316 118.957 531.377 118.309C530.372 117.608 529.291 117.014 528.235 116.393C527.632 116.043 527.556 115.593 527.917 114.981C528.428 114.118 529.056 113.344 529.827 112.786C533.749 109.944 538.047 109.296 542.455 111.005C547.491 112.948 549.141 118.705 546.209 123.535C544.734 125.964 542.673 127.835 540.636 129.706C540.234 130.074 539.79 130.362 539.313 131.37Z" fill="url(#paint2_linear_78_18)"/>
</g>
<g filter="url(#filter11_d_78_18)">
<path d="M522.546 111.599C522.814 112.274 522.462 112.589 522.294 112.939C518.75 120.486 515.155 128.006 511.661 135.579C511.1 136.802 510.438 137.225 509.206 137.135C507.614 137.018 506.014 137.108 504.438 137.108C504.053 136.335 504.438 135.75 504.572 135.165C506.122 127.835 507.731 120.513 509.248 113.173C509.491 111.986 509.826 111.518 511.049 111.554C514.904 111.662 518.758 111.59 522.546 111.59V111.599Z" fill="#FCFCFC"/>
</g>
<g filter="url(#filter12_d_78_18)">
<path d="M232.742 146.679C228.955 146.679 225.344 146.679 221.732 146.679C220.928 146.679 220.123 146.679 219.319 146.679C216.889 146.679 216.864 146.679 216.889 144.061C216.914 140.814 216.47 141.264 219.579 141.246C223.391 141.219 227.212 141.237 231.025 141.246C232.726 141.246 232.726 141.264 232.734 143.153C232.734 144.223 232.734 145.302 232.734 146.679H232.742Z" fill="#FCFCFC"/>
</g>
<g filter="url(#filter13_d_78_18)">
<path d="M144.694 141.578C144.233 141.363 143.973 141.812 143.671 142.073C140.529 144.763 137.353 147.398 134.278 150.177C133.315 151.05 131.999 151.563 131.488 152.966C130.876 153.479 130.273 153.991 129.661 154.513C127.935 155.25 126.737 156.717 125.472 158.084C124.877 158.614 124.282 159.145 123.687 159.685C123.385 159.568 123.377 159.586 123.427 159.919C120.704 162.275 117.972 164.623 115.241 166.98C114.973 166.818 114.897 166.89 114.998 167.204C111.16 170.533 107.314 173.852 103.476 177.189C102.152 178.34 102.152 178.7 103.434 179.806C105.362 181.461 107.322 183.071 109.702 183.953C109.736 184.285 109.744 184.294 110.012 184.124C110.573 184.33 111.135 184.546 111.696 184.753C111.562 184.843 111.571 184.969 111.738 185.041C111.906 185.113 111.99 185.014 111.939 184.861C112.409 184.987 112.878 185.113 113.347 185.239C113.431 185.716 113.615 185.734 113.9 185.392C115.232 185.581 116.565 185.779 117.897 185.967C117.855 186.021 117.796 186.066 117.78 186.129C117.78 186.156 117.847 186.246 117.889 186.246C118.902 186.165 119.958 186.687 120.922 185.958C122.237 185.77 123.561 185.581 124.885 185.392C125.849 185.716 126.645 185.311 127.416 184.762C127.734 184.546 128.061 184.339 128.379 184.124C128.413 184.294 128.505 184.321 128.647 184.196C128.781 184.079 128.79 183.971 128.647 183.872C128.84 183.692 129.024 183.503 129.217 183.323C130.608 182.397 131.781 181.236 132.561 179.644C132.803 179.32 133.055 178.997 133.298 178.664C133.675 178.88 133.759 178.466 133.893 178.295C135.979 175.471 137.747 172.412 139.18 169.165C141.887 163.022 143.537 156.528 144.409 149.809C144.71 147.47 144.844 145.095 145.046 142.739C145.079 142.316 145.146 141.821 144.694 141.605V141.578Z" fill="#FCFCFC"/>
</g>
<rect x="40" y="8" width="47.1719" height="26" rx="2" fill="#404040"/>
<rect x="40.5" y="8.5" width="46.1719" height="25" rx="1.5" stroke="black" stroke-opacity="0.14902"/>
<path d="M49.3438 18C49.2969 17.6042 49.1068 17.2969 48.7734 17.0781C48.4401 16.8594 48.0313 16.75 47.5469 16.75C47.1927 16.75 46.8828 16.8073 46.6172 16.9219C46.3542 17.0365 46.1484 17.194 46 17.3945C45.8542 17.5951 45.7813 17.8229 45.7813 18.0781C45.7813 18.2917 45.832 18.4753 45.9336 18.6289C46.0378 18.7799 46.1706 18.9062 46.332 19.0078C46.4935 19.1068 46.6628 19.1888 46.8398 19.2539C47.0169 19.3164 47.1797 19.3672 47.3281 19.4062L48.1406 19.625C48.349 19.6797 48.5807 19.7552 48.8359 19.8516C49.0938 19.9479 49.3398 20.0794 49.5742 20.2461C49.8112 20.4102 50.0065 20.6211 50.1602 20.8789C50.3138 21.1367 50.3906 21.4531 50.3906 21.8281C50.3906 22.2604 50.2773 22.651 50.0508 23C49.8268 23.349 49.4987 23.6263 49.0664 23.832C48.6367 24.0378 48.1146 24.1406 47.5 24.1406C46.9271 24.1406 46.431 24.0482 46.0117 23.8633C45.5951 23.6784 45.2669 23.4206 45.0273 23.0898C44.7904 22.7591 44.6563 22.375 44.625 21.9375H45.625C45.651 22.2396 45.7526 22.4896 45.9297 22.6875C46.1094 22.8828 46.3359 23.0286 46.6094 23.125C46.8854 23.2187 47.1823 23.2656 47.5 23.2656C47.8698 23.2656 48.2018 23.2057 48.4961 23.0859C48.7904 22.9635 49.0234 22.7943 49.1953 22.5781C49.3672 22.3594 49.4531 22.1042 49.4531 21.8125C49.4531 21.5469 49.3789 21.3307 49.2305 21.1641C49.082 20.9974 48.8867 20.862 48.6445 20.7578C48.4023 20.6536 48.1406 20.5625 47.8594 20.4844L46.875 20.2031C46.25 20.0234 45.7552 19.7669 45.3906 19.4336C45.026 19.1003 44.8438 18.6641 44.8438 18.125C44.8438 17.6771 44.9648 17.2865 45.207 16.9531C45.4518 16.6172 45.7799 16.3568 46.1914 16.1719C46.6055 15.9844 47.0677 15.8906 47.5781 15.8906C48.0938 15.8906 48.5521 15.9831 48.9531 16.168C49.3542 16.3503 49.6719 16.6003 49.9062 16.918C50.1432 17.2357 50.2682 17.5964 50.2813 18H49.3438ZM54.374 24.125C53.7959 24.125 53.2972 23.9974 52.8779 23.7422C52.4613 23.4844 52.1396 23.125 51.9131 22.6641C51.6891 22.2005 51.5771 21.6615 51.5771 21.0469C51.5771 20.4323 51.6891 19.8906 51.9131 19.4219C52.1396 18.9505 52.4548 18.5833 52.8584 18.3203C53.2646 18.0547 53.7386 17.9219 54.2803 17.9219C54.5928 17.9219 54.9014 17.974 55.2061 18.0781C55.5107 18.1823 55.7881 18.3516 56.0381 18.5859C56.2881 18.8177 56.4873 19.125 56.6357 19.5078C56.7842 19.8906 56.8584 20.362 56.8584 20.9219V21.3125H52.2334V20.5156H55.9209C55.9209 20.1771 55.8532 19.875 55.7178 19.6094C55.585 19.3437 55.3949 19.1341 55.1475 18.9805C54.9027 18.8268 54.6136 18.75 54.2803 18.75C53.9131 18.75 53.5954 18.8411 53.3271 19.0234C53.0615 19.2031 52.8571 19.4375 52.7139 19.7266C52.5706 20.0156 52.499 20.3255 52.499 20.6562V21.1875C52.499 21.6406 52.5771 22.0247 52.7334 22.3398C52.8923 22.6523 53.1123 22.8906 53.3936 23.0547C53.6748 23.2161 54.0016 23.2969 54.374 23.2969C54.6162 23.2969 54.835 23.263 55.0303 23.1953C55.2282 23.125 55.3988 23.0208 55.542 22.8828C55.6852 22.7422 55.7959 22.5677 55.874 22.3594L56.7646 22.6094C56.6709 22.9115 56.5133 23.1771 56.292 23.4062C56.0706 23.6328 55.7972 23.8099 55.4717 23.9375C55.1462 24.0625 54.7803 24.125 54.374 24.125ZM60.6982 24.125C60.1357 24.125 59.6514 23.9922 59.2451 23.7266C58.8389 23.4609 58.5264 23.0951 58.3076 22.6289C58.0889 22.1628 57.9795 21.6302 57.9795 21.0312C57.9795 20.4219 58.0915 19.8841 58.3154 19.418C58.542 18.9492 58.8571 18.5833 59.2607 18.3203C59.667 18.0547 60.141 17.9219 60.6826 17.9219C61.1045 17.9219 61.4847 18 61.8232 18.1562C62.1618 18.3125 62.4391 18.5312 62.6553 18.8125C62.8714 19.0937 63.0055 19.4219 63.0576 19.7969H62.1357C62.0654 19.5234 61.9092 19.2812 61.667 19.0703C61.4274 18.8568 61.1045 18.75 60.6982 18.75C60.3389 18.75 60.0238 18.8437 59.7529 19.0312C59.4847 19.2161 59.2751 19.4779 59.124 19.8164C58.9756 20.1523 58.9014 20.5469 58.9014 21C58.9014 21.4635 58.9743 21.8672 59.1201 22.2109C59.2686 22.5547 59.4769 22.8216 59.7451 23.0117C60.016 23.2018 60.3337 23.2969 60.6982 23.2969C60.9378 23.2969 61.1553 23.2552 61.3506 23.1719C61.5459 23.0885 61.7113 22.9688 61.8467 22.8125C61.9821 22.6562 62.0785 22.4687 62.1357 22.25H63.0576C63.0055 22.6042 62.8766 22.9232 62.6709 23.207C62.4678 23.4883 62.1982 23.7122 61.8623 23.8789C61.529 24.043 61.141 24.125 60.6982 24.125ZM67.0146 18V18.7812H63.9053V18H67.0146ZM64.8115 16.5625H65.7334V22.2812C65.7334 22.5417 65.7712 22.737 65.8467 22.8672C65.9248 22.9948 66.0238 23.0807 66.1436 23.125C66.266 23.1667 66.3949 23.1875 66.5303 23.1875C66.6318 23.1875 66.7152 23.1823 66.7803 23.1719C66.8454 23.1589 66.8975 23.1484 66.9365 23.1406L67.124 23.9687C67.0615 23.9922 66.9743 24.0156 66.8623 24.0391C66.7503 24.0651 66.6084 24.0781 66.4365 24.0781C66.1761 24.0781 65.9209 24.0221 65.6709 23.9102C65.4235 23.7982 65.2178 23.6276 65.0537 23.3984C64.8923 23.1693 64.8115 22.8802 64.8115 22.5312V16.5625ZM68.4014 24V18H69.3232V24H68.4014ZM68.8701 17C68.6904 17 68.5355 16.9388 68.4053 16.8164C68.2777 16.694 68.2139 16.5469 68.2139 16.375C68.2139 16.2031 68.2777 16.056 68.4053 15.9336C68.5355 15.8112 68.6904 15.75 68.8701 15.75C69.0498 15.75 69.2035 15.8112 69.3311 15.9336C69.4613 16.056 69.5264 16.2031 69.5264 16.375C69.5264 16.5469 69.4613 16.694 69.3311 16.8164C69.2035 16.9388 69.0498 17 68.8701 17ZM73.4492 24.125C72.9076 24.125 72.4323 23.9961 72.0234 23.7383C71.6172 23.4805 71.2995 23.1198 71.0703 22.6562C70.8438 22.1927 70.7305 21.651 70.7305 21.0312C70.7305 20.4062 70.8438 19.8607 71.0703 19.3945C71.2995 18.9284 71.6172 18.5664 72.0234 18.3086C72.4323 18.0508 72.9076 17.9219 73.4492 17.9219C73.9909 17.9219 74.4648 18.0508 74.8711 18.3086C75.2799 18.5664 75.5977 18.9284 75.8242 19.3945C76.0534 19.8607 76.168 20.4062 76.168 21.0312C76.168 21.651 76.0534 22.1927 75.8242 22.6562C75.5977 23.1198 75.2799 23.4805 74.8711 23.7383C74.4648 23.9961 73.9909 24.125 73.4492 24.125ZM73.4492 23.2969C73.8607 23.2969 74.1992 23.1914 74.4648 22.9805C74.7305 22.7695 74.9271 22.4922 75.0547 22.1484C75.1823 21.8047 75.2461 21.4323 75.2461 21.0312C75.2461 20.6302 75.1823 20.2565 75.0547 19.9102C74.9271 19.5638 74.7305 19.2839 74.4648 19.0703C74.1992 18.8568 73.8607 18.75 73.4492 18.75C73.0378 18.75 72.6992 18.8568 72.4336 19.0703C72.168 19.2839 71.9714 19.5638 71.8438 19.9102C71.7161 20.2565 71.6523 20.6302 71.6523 21.0312C71.6523 21.4323 71.7161 21.8047 71.8438 22.1484C71.9714 22.4922 72.168 22.7695 72.4336 22.9805C72.6992 23.1914 73.0378 23.2969 73.4492 23.2969ZM78.4971 20.3906V24H77.5752V18H78.4658V18.9375H78.5439C78.6846 18.6328 78.8981 18.388 79.1846 18.2031C79.471 18.0156 79.8408 17.9219 80.2939 17.9219C80.7002 17.9219 81.0557 18.0052 81.3604 18.1719C81.665 18.3359 81.902 18.5859 82.0713 18.9219C82.2406 19.2552 82.3252 19.6771 82.3252 20.1875V24H81.4033V20.25C81.4033 19.7786 81.2809 19.4115 81.0361 19.1484C80.7913 18.8828 80.4554 18.75 80.0283 18.75C79.734 18.75 79.471 18.8138 79.2393 18.9414C79.0101 19.069 78.8291 19.2552 78.6963 19.5C78.5635 19.7448 78.4971 20.0417 78.4971 20.3906Z" fill="white"/>
<defs>
<filter id="filter0_d_78_18" x="40" y="40" width="138.408" height="175.09" filterUnits="userSpaceOnUse" color-interpolation-filters="sRGB">
<feFlood flood-opacity="0" result="BackgroundImageFix"/>
<feColorMatrix in="SourceAlpha" type="matrix" values="0 0 0 0 0 0 0 0 0 0 0 0 0 0 0 0 0 0 127 0" result="hardAlpha"/>
<feOffset dx="15" dy="17"/>
<feGaussianBlur stdDeviation="5"/>
<feComposite in2="hardAlpha" operator="out"/>
<feColorMatrix type="matrix" values="0 0 0 0 0 0 0 0 0 0 0 0 0 0 0 0 0 0 0.25 0"/>
<feBlend mode="normal" in2="BackgroundImageFix" result="effect1_dropShadow_78_18"/>
<feBlend mode="normal" in="SourceGraphic" in2="effect1_dropShadow_78_18" result="shape"/>
</filter>
<filter id="filter1_d_78_18" x="65.637" y="95.6195" width="104.361" height="131.277" filterUnits="userSpaceOnUse" color-interpolation-filters="sRGB">
<feFlood flood-opacity="0" result="BackgroundImageFix"/>
<feColorMatrix in="SourceAlpha" type="matrix" values="0 0 0 0 0 0 0 0 0 0 0 0 0 0 0 0 0 0 127 0" result="hardAlpha"/>
<feOffset dx="15" dy="17"/>
<feGaussianBlur stdDeviation="5"/>
<feComposite in2="hardAlpha" operator="out"/>
<feColorMatrix type="matrix" values="0 0 0 0 0 0 0 0 0 0 0 0 0 0 0 0 0 0 0.25 0"/>
<feBlend mode="normal" in2="BackgroundImageFix" result="effect1_dropShadow_78_18"/>
<feBlend mode="normal" in="SourceGraphic" in2="effect1_dropShadow_78_18" result="shape"/>
</filter>
<filter id="filter2_d_78_18" x="381.045" y="110.628" width="67.2408" height="79.0986" filterUnits="userSpaceOnUse" color-interpolation-filters="sRGB">
<feFlood flood-opacity="0" result="BackgroundImageFix"/>
<feColorMatrix in="SourceAlpha" type="matrix" values="0 0 0 0 0 0 0 0 0 0 0 0 0 0 0 0 0 0 127 0" result="hardAlpha"/>
<feOffset dx="15" dy="17"/>
<feGaussianBlur stdDeviation="5"/>
<feComposite in2="hardAlpha" operator="out"/>
<feColorMatrix type="matrix" values="0 0 0 0 0 0 0 0 0 0 0 0 0 0 0 0 0 0 0.25 0"/>
<feBlend mode="normal" in2="BackgroundImageFix" result="effect1_dropShadow_78_18"/>
<feBlend mode="normal" in="SourceGraphic" in2="effect1_dropShadow_78_18" result="shape"/>
</filter>
<filter id="filter3_d_78_18" x="330.859" y="110.933" width="67.3377" height="78.819" filterUnits="userSpaceOnUse" color-interpolation-filters="sRGB">
<feFlood flood-opacity="0" result="BackgroundImageFix"/>
<feColorMatrix in="SourceAlpha" type="matrix" values="0 0 0 0 0 0 0 0 0 0 0 0 0 0 0 0 0 0 127 0" result="hardAlpha"/>
<feOffset dx="15" dy="17"/>
<feGaussianBlur stdDeviation="5"/>
<feComposite in2="hardAlpha" operator="out"/>
<feColorMatrix type="matrix" values="0 0 0 0 0 0 0 0 0 0 0 0 0 0 0 0 0 0 0.25 0"/>
<feBlend mode="normal" in2="BackgroundImageFix" result="effect1_dropShadow_78_18"/>
<feBlend mode="normal" in="SourceGraphic" in2="effect1_dropShadow_78_18" result="shape"/>
</filter>
<filter id="filter4_d_78_18" x="237.987" y="111.394" width="64.9632" height="79.3263" filterUnits="userSpaceOnUse" color-interpolation-filters="sRGB">
<feFlood flood-opacity="0" result="BackgroundImageFix"/>
<feColorMatrix in="SourceAlpha" type="matrix" values="0 0 0 0 0 0 0 0 0 0 0 0 0 0 0 0 0 0 127 0" result="hardAlpha"/>
<feOffset dx="15" dy="17"/>
<feGaussianBlur stdDeviation="5"/>
<feComposite in2="hardAlpha" operator="out"/>
<feColorMatrix type="matrix" values="0 0 0 0 0 0 0 0 0 0 0 0 0 0 0 0 0 0 0.25 0"/>
<feBlend mode="normal" in2="BackgroundImageFix" result="effect1_dropShadow_78_18"/>
<feBlend mode="normal" in="SourceGraphic" in2="effect1_dropShadow_78_18" result="shape"/>
</filter>
<filter id="filter5_d_78_18" x="284.151" y="112.218" width="64.1813" height="78.4145" filterUnits="userSpaceOnUse" color-interpolation-filters="sRGB">
<feFlood flood-opacity="0" result="BackgroundImageFix"/>
<feColorMatrix in="SourceAlpha" type="matrix" values="0 0 0 0 0 0 0 0 0 0 0 0 0 0 0 0 0 0 127 0" result="hardAlpha"/>
<feOffset dx="15" dy="17"/>
<feGaussianBlur stdDeviation="5"/>
<feComposite in2="hardAlpha" operator="out"/>
<feColorMatrix type="matrix" values="0 0 0 0 0 0 0 0 0 0 0 0 0 0 0 0 0 0 0.25 0"/>
<feBlend mode="normal" in2="BackgroundImageFix" result="effect1_dropShadow_78_18"/>
<feBlend mode="normal" in="SourceGraphic" in2="effect1_dropShadow_78_18" result="shape"/>
</filter>
<filter id="filter6_d_78_18" x="177.667" y="112.226" width="60.3588" height="77.4094" filterUnits="userSpaceOnUse" color-interpolation-filters="sRGB">
<feFlood flood-opacity="0" result="BackgroundImageFix"/>
<feColorMatrix in="SourceAlpha" type="matrix" values="0 0 0 0 0 0 0 0 0 0 0 0 0 0 0 0 0 0 127 0" result="hardAlpha"/>
<feOffset dx="15" dy="17"/>
<feGaussianBlur stdDeviation="5"/>
<feComposite in2="hardAlpha" operator="out"/>
<feColorMatrix type="matrix" values="0 0 0 0 0 0 0 0 0 0 0 0 0 0 0 0 0 0 0.25 0"/>
<feBlend mode="normal" in2="BackgroundImageFix" result="effect1_dropShadow_78_18"/>
<feBlend mode="normal" in="SourceGraphic" in2="effect1_dropShadow_78_18" result="shape"/>
</filter>
<filter id="filter7_d_78_18" x="455.772" y="112.205" width="61.8362" height="77.4387" filterUnits="userSpaceOnUse" color-interpolation-filters="sRGB">
<feFlood flood-opacity="0" result="BackgroundImageFix"/>
<feColorMatrix in="SourceAlpha" type="matrix" values="0 0 0 0 0 0 0 0 0 0 0 0 0 0 0 0 0 0 127 0" result="hardAlpha"/>
<feOffset dx="15" dy="17"/>
<feGaussianBlur stdDeviation="5"/>
<feComposite in2="hardAlpha" operator="out"/>
<feColorMatrix type="matrix" values="0 0 0 0 0 0 0 0 0 0 0 0 0 0 0 0 0 0 0.25 0"/>
<feBlend mode="normal" in2="BackgroundImageFix" result="effect1_dropShadow_78_18"/>
<feBlend mode="normal" in="SourceGraphic" in2="effect1_dropShadow_78_18" result="shape"/>
</filter>
<filter id="filter8_d_78_18" x="429.76" y="112.229" width="47.1417" height="77.5199" filterUnits="userSpaceOnUse" color-interpolation-filters="sRGB">
<feFlood flood-opacity="0" result="BackgroundImageFix"/>
<feColorMatrix in="SourceAlpha" type="matrix" values="0 0 0 0 0 0 0 0 0 0 0 0 0 0 0 0 0 0 127 0" result="hardAlpha"/>
<feOffset dx="15" dy="17"/>
<feGaussianBlur stdDeviation="5"/>
<feComposite in2="hardAlpha" operator="out"/>
<feColorMatrix type="matrix" values="0 0 0 0 0 0 0 0 0 0 0 0 0 0 0 0 0 0 0.25 0"/>
<feBlend mode="normal" in2="BackgroundImageFix" result="effect1_dropShadow_78_18"/>
<feBlend mode="normal" in="SourceGraphic" in2="effect1_dropShadow_78_18" result="shape"/>
</filter>
<filter id="filter9_d_78_18" x="549.004" y="110.494" width="45.5059" height="54.5947" filterUnits="userSpaceOnUse" color-interpolation-filters="sRGB">
<feFlood flood-opacity="0" result="BackgroundImageFix"/>
<feColorMatrix in="SourceAlpha" type="matrix" values="0 0 0 0 0 0 0 0 0 0 0 0 0 0 0 0 0 0 127 0" result="hardAlpha"/>
<feOffset dx="15" dy="17"/>
<feGaussianBlur stdDeviation="5"/>
<feComposite in2="hardAlpha" operator="out"/>
<feColorMatrix type="matrix" values="0 0 0 0 0 0 0 0 0 0 0 0 0 0 0 0 0 0 0.25 0"/>
<feBlend mode="normal" in2="BackgroundImageFix" result="effect1_dropShadow_78_18"/>
<feBlend mode="normal" in="SourceGraphic" in2="effect1_dropShadow_78_18" result="shape"/>
</filter>
<filter id="filter10_d_78_18" x="527.699" y="110.068" width="45.6924" height="54.6361" filterUnits="userSpaceOnUse" color-interpolation-filters="sRGB">
<feFlood flood-opacity="0" result="BackgroundImageFix"/>
<feColorMatrix in="SourceAlpha" type="matrix" values="0 0 0 0 0 0 0 0 0 0 0 0 0 0 0 0 0 0 127 0" result="hardAlpha"/>
<feOffset dx="15" dy="17"/>
<feGaussianBlur stdDeviation="5"/>
<feComposite in2="hardAlpha" operator="out"/>
<feColorMatrix type="matrix" values="0 0 0 0 0 0 0 0 0 0 0 0 0 0 0 0 0 0 0.25 0"/>
<feBlend mode="normal" in2="BackgroundImageFix" result="effect1_dropShadow_78_18"/>
<feBlend mode="normal" in="SourceGraphic" in2="effect1_dropShadow_78_18" result="shape"/>
</filter>
<filter id="filter11_d_78_18" x="504.271" y="111.552" width="43.3717" height="52.5946" filterUnits="userSpaceOnUse" color-interpolation-filters="sRGB">
<feFlood flood-opacity="0" result="BackgroundImageFix"/>
<feColorMatrix in="SourceAlpha" type="matrix" values="0 0 0 0 0 0 0 0 0 0 0 0 0 0 0 0 0 0 127 0" result="hardAlpha"/>
<feOffset dx="15" dy="17"/>
<feGaussianBlur stdDeviation="5"/>
<feComposite in2="hardAlpha" operator="out"/>
<feColorMatrix type="matrix" values="0 0 0 0 0 0 0 0 0 0 0 0 0 0 0 0 0 0 0.25 0"/>
<feBlend mode="normal" in2="BackgroundImageFix" result="effect1_dropShadow_78_18"/>
<feBlend mode="normal" in="SourceGraphic" in2="effect1_dropShadow_78_18" result="shape"/>
</filter>
<filter id="filter12_d_78_18" x="216.88" y="141.231" width="40.8625" height="32.4471" filterUnits="userSpaceOnUse" color-interpolation-filters="sRGB">
<feFlood flood-opacity="0" result="BackgroundImageFix"/>
<feColorMatrix in="SourceAlpha" type="matrix" values="0 0 0 0 0 0 0 0 0 0 0 0 0 0 0 0 0 0 127 0" result="hardAlpha"/>
<feOffset dx="15" dy="17"/>
<feGaussianBlur stdDeviation="5"/>
<feComposite in2="hardAlpha" operator="out"/>
<feColorMatrix type="matrix" values="0 0 0 0 0 0 0 0 0 0 0 0 0 0 0 0 0 0 0.25 0"/>
<feBlend mode="normal" in2="BackgroundImageFix" result="effect1_dropShadow_78_18"/>
<feBlend mode="normal" in="SourceGraphic" in2="effect1_dropShadow_78_18" result="shape"/>
</filter>
<filter id="filter13_d_78_18" x="102.478" y="141.522" width="67.5919" height="71.8306" filterUnits="userSpaceOnUse" color-interpolation-filters="sRGB">
<feFlood flood-opacity="0" result="BackgroundImageFix"/>
<feColorMatrix in="SourceAlpha" type="matrix" values="0 0 0 0 0 0 0 0 0 0 0 0 0 0 0 0 0 0 127 0" result="hardAlpha"/>
<feOffset dx="15" dy="17"/>
<feGaussianBlur stdDeviation="5"/>
<feComposite in2="hardAlpha" operator="out"/>
<feColorMatrix type="matrix" values="0 0 0 0 0 0 0 0 0 0 0 0 0 0 0 0 0 0 0.25 0"/>
<feBlend mode="normal" in2="BackgroundImageFix" result="effect1_dropShadow_78_18"/>
<feBlend mode="normal" in="SourceGraphic" in2="effect1_dropShadow_78_18" result="shape"/>
</filter>
<linearGradient id="paint0_linear_78_18" x1="34.0126" y1="163.544" x2="163.736" y2="79.3599" gradientUnits="userSpaceOnUse">
<stop stop-color="#121214"/>
<stop offset="0.16" stop-color="#F72881"/>
<stop offset="1" stop-color="#FF793E"/>
</linearGradient>
<linearGradient id="paint1_linear_78_18" x1="559.257" y1="110.494" x2="559.257" y2="138.089" gradientUnits="userSpaceOnUse">
<stop stop-color="#FF854F"/>
<stop offset="1" stop-color="#FF580E"/>
</linearGradient>
<linearGradient id="paint2_linear_78_18" x1="538.046" y1="110.068" x2="538.046" y2="137.704" gradientUnits="userSpaceOnUse">
<stop stop-color="#FE8F5F"/>
<stop offset="1" stop-color="#FF773C"/>
</linearGradient>
</defs>
</svg>
