<svg xml:space="preserve" style="enable-background:new 0 0 100 100;" viewBox="0 0 100 100" y="0px" x="0px" xmlns:xlink="http://www.w3.org/1999/xlink" xmlns="http://www.w3.org/2000/svg" id="Layer_1" version="1.1">
<style type="text/css">
	.st0{opacity:0.45;fill:#16c0cb;dark:#35dee9;enable-background:new    ;}
	.st1{fill:#16c0cb;dark:#35dee9;}
</style>
<path d="M50,100c27.6,0,50-22.4,50-50S77.6,0,50,0S0,22.4,0,50S22.4,100,50,100z" class="st0"></path>
<g>
	<g>
		<circle r="6.6" cy="31.6" cx="51.5" class="st1"></circle>
		<polygon points="68.4,37.5 67.6,34.2 57,39.1 53.9,39.1 51.4,42.1 49,39.1 44.2,40 44.2,40.1 34,33.6 31.6,37.3 
			44.9,45.8 45.5,52 45.7,54.4 46,54.4 46,55.9 46,57 43.2,62.2 37.8,59.3 35.6,63.3 35.6,63.3 35,64.4 36.5,65.2 37,64.1 
			44.8,68.2 46.9,64.1 46.9,64.1 50.7,57 52.4,57 54.3,64.9 49.7,71.8 49.7,71.8 49.7,71.8 54.5,75 55.6,73.3 54.6,72.6 59.2,65.7 
			59.2,65.7 57.1,57 57.1,55.9 57.1,54.4 57.5,54.4 58.3,43.6" class="st1"></polygon>
	</g>
</g>
</svg>
