<svg xmlns="http://www.w3.org/2000/svg" xmlns:xlink="http://www.w3.org/1999/xlink" viewBox="0 0 500 500"><defs><style>.cls-1,.cls-10,.cls-13{fill:none;}.cls-2{isolation:isolate;}.cls-3{fill:url(#Degradado_sin_nombre_129);}.cls-4{fill:url(#Degradado_sin_nombre_144);}.cls-5{fill:url(#Degradado_sin_nombre_106);}.cls-6{fill:#f97316;}.cls-7{fill:#fff;opacity:0.33;}.cls-10,.cls-12,.cls-13,.cls-15,.cls-27,.cls-28,.cls-7{mix-blend-mode:soft-light;}.cls-8{fill:url(#Degradado_sin_nombre_36);}.cls-9{fill:url(#Degradado_sin_nombre_36-2);}.cls-10,.cls-13{stroke:#000;stroke-miterlimit:10;stroke-width:1.89px;}.cls-10{opacity:0.09;}.cls-11{fill:url(#Degradado_sin_nombre_13);}.cls-12{fill:url(#Degradado_sin_nombre_126);}.cls-14{clip-path:url(#clip-path);}.cls-15{fill:url(#Degradado_sin_nombre_153);}.cls-16{fill:#d4d4d4;}.cls-17{fill:url(#Degradado_sin_nombre_13-2);}.cls-18{fill:#76c9f0;}.cls-19{fill:url(#Degradado_sin_nombre_6);}.cls-20{clip-path:url(#clip-path-2);}.cls-21{fill:url(#Degradado_sin_nombre_158);}.cls-22{fill:url(#Degradado_sin_nombre_158-2);}.cls-23{fill:#a3a3a3;}.cls-24{fill:#b9b9b9;}.cls-25{opacity:0.48;}.cls-26{clip-path:url(#clip-path-3);}.cls-27{fill:url(#Degradado_sin_nombre_126-2);}.cls-28{fill:url(#Degradado_sin_nombre_126-3);}</style><linearGradient id="Degradado_sin_nombre_129" x1="69.85" y1="426.9" x2="173.08" y2="329.66" gradientUnits="userSpaceOnUse"><stop offset="0" stop-color="#ff8533"/><stop offset="1" stop-color="#ffd052"/></linearGradient><linearGradient id="Degradado_sin_nombre_144" x1="117.03" y1="382.84" x2="180.66" y2="320.24" gradientUnits="userSpaceOnUse"><stop offset="0" stop-color="#ffd052"/><stop offset="1" stop-color="#ffe9ae"/></linearGradient><linearGradient id="Degradado_sin_nombre_106" x1="235.86" y1="351.32" x2="176.29" y2="253.95" gradientUnits="userSpaceOnUse"><stop offset="0" stop-color="#767b7f"/><stop offset="1" stop-color="#a3a3a3"/></linearGradient><linearGradient id="Degradado_sin_nombre_36" x1="276.04" y1="151.46" x2="346.66" y2="318.25" gradientUnits="userSpaceOnUse"><stop offset="0" stop-color="#eef4fa"/><stop offset="1" stop-color="#cddeed"/></linearGradient><linearGradient id="Degradado_sin_nombre_36-2" x1="285.68" y1="169.95" x2="345.59" y2="311.45" xlink:href="#Degradado_sin_nombre_36"/><linearGradient id="Degradado_sin_nombre_13" x1="173.01" y1="238.2" x2="236.75" y2="316.85" gradientUnits="userSpaceOnUse"><stop offset="0" stop-color="#c7c7c7"/><stop offset="1" stop-color="#a3a3a3"/></linearGradient><linearGradient id="Degradado_sin_nombre_126" x1="219.38" y1="276.73" x2="232.42" y2="316.95" gradientUnits="userSpaceOnUse"><stop offset="0" stop-color="#1d262d"/><stop offset="1" stop-color="#1d262d" stop-opacity="0"/></linearGradient><clipPath id="clip-path"><path class="cls-1" d="M404.69,145.8c6.41-41.53-1.76-51.3-1.76-51.3s-9.86-8.07-51.43-1.33c-43.91,7.12-71.77,34.12-90.75,52.89-24.56,24.28-65.05,80.15-84.19,127.72L201,297.69l24.17,24.17c47.51-19.49,103.16-60.37,127.29-85.07C371.1,217.7,397.93,189.67,404.69,145.8Z"/></clipPath><linearGradient id="Degradado_sin_nombre_153" x1="300.98" y1="223.31" x2="327.97" y2="279.8" gradientTransform="translate(457.54 -111.73) rotate(82.28)" gradientUnits="userSpaceOnUse"><stop offset="0" stop-color="#1d262d"/><stop offset="0.68" stop-color="#1d262d" stop-opacity="0.32"/><stop offset="1" stop-color="#1d262d" stop-opacity="0"/></linearGradient><linearGradient id="Degradado_sin_nombre_13-2" x1="273.29" y1="159.33" x2="326.29" y2="283.31" gradientTransform="translate(0.66 -0.94) rotate(0.18)" xlink:href="#Degradado_sin_nombre_13"/><linearGradient id="Degradado_sin_nombre_6" x1="266.98" y1="166.52" x2="329.62" y2="262.24" gradientTransform="translate(1.01 -1.43) rotate(0.28)" gradientUnits="userSpaceOnUse"><stop offset="0" stop-color="#ade5ff"/><stop offset="1" stop-color="#76c9f0"/></linearGradient><clipPath id="clip-path-2"><circle class="cls-1" cx="292.39" cy="205.35" r="31.73" transform="translate(-1 1.44) rotate(-0.28)"/></clipPath><linearGradient id="Degradado_sin_nombre_158" x1="322.99" y1="178.97" x2="256.03" y2="223.31" gradientTransform="translate(106.03 -99.57) rotate(23.83)" gradientUnits="userSpaceOnUse"><stop offset="0" stop-color="#f9fbfc"/><stop offset="1" stop-color="#f9fbfc" stop-opacity="0"/></linearGradient><linearGradient id="Degradado_sin_nombre_158-2" x1="331.57" y1="191.93" x2="264.61" y2="236.27" gradientTransform="translate(112.51 -100.64) rotate(23.83)" xlink:href="#Degradado_sin_nombre_158"/><clipPath id="clip-path-3"><path class="cls-1" d="M404.69,145.8c6.41-41.53-1.76-51.3-1.76-51.3s-9.86-8.07-51.43-1.33c-43.91,7.12-71.77,34.12-90.75,52.89-19.59,19.37-49.33,58.86-70.27,98.18a308.25,308.25,0,0,0-13.92,29.54L201,297.69l24.17,24.17c47.51-19.49,103.16-60.37,127.29-85.07C371.1,217.7,397.93,189.67,404.69,145.8Z"/></clipPath><linearGradient id="Degradado_sin_nombre_126-2" x1="452.41" y1="295.32" x2="308" y2="205.14" xlink:href="#Degradado_sin_nombre_126"/><linearGradient id="Degradado_sin_nombre_126-3" x1="245.78" y1="289.81" x2="260.73" y2="323.3" xlink:href="#Degradado_sin_nombre_126"/></defs><g class="cls-2"><g id="OBJECTS"><path class="cls-3" d="M174.23,325.57s-60.82-22.82-73.83,36.36l12.85-2.56s-15.06,17.31-20.4,50.14c32.66-6.35,49.49-21.94,49.49-21.94l-2.16,12.92C198.92,385.64,174.23,325.57,174.23,325.57Z"/><path class="cls-4" d="M174.23,325.57s-37.94-14.24-46,22.68l8-1.6s-9.39,10.8-12.72,31.28c20.37-4,30.87-13.69,30.87-13.69L153,372.3C189.63,363,174.23,325.57,174.23,325.57Z"/><polygon class="cls-5" points="217.21 322.55 175.71 281.49 187.15 269.98 228.64 311.04 217.21 322.55"/><path class="cls-6" d="M207.21,215.49s-38.55-2.85-54.36,13c-17.06,17.16-31.19,38.16-42.6,68.17-6.09,16,10-.54,20.65-10.29,18.67-17.06,27.88-16.72,45.66-12.65C176.56,273.77,186.14,254.16,207.21,215.49Z"/><path class="cls-7" d="M207.21,215.49s-38.55-2.85-54.36,13c-17.06,17.16-31.19,38.16-42.6,68.17-1.15,3-1.51,4.86-1.27,5.84,0,0,16.4-38,34.37-56.63s30-25.55,63.86-30.43"/><path class="cls-6" d="M283.32,290.8s3.18,38.43-12.63,54.34c-17.05,17.16-38,31.44-68,43.08-16,6.21.46-10,10.14-20.7,16.95-18.77,16.52-27.95,12.29-45.66C225.16,321.86,244.74,312.14,283.32,290.8Z"/><path class="cls-8" d="M404.69,145.8c6.41-41.53-1.76-51.3-1.76-51.3s-9.86-8.07-51.43-1.33c-43.91,7.12-71.77,34.12-90.75,52.89-24.56,24.28-65.05,80.15-84.19,127.72L201,297.69l24.17,24.17c47.51-19.49,103.16-60.37,127.29-85.07C371.1,217.7,397.93,189.67,404.69,145.8Z"/><path class="cls-9" d="M182.75,279.84,201,297.69l24.17,24.17c47.51-19.49,103.16-60.37,127.29-85.07,18.65-19.09,45.48-47.12,52.24-91,6.41-41.53-1.76-51.3-1.76-51.3"/><line class="cls-10" x1="180.02" y1="277.16" x2="221.61" y2="318.31"/><path class="cls-11" d="M176.56,273.78,201,297.69l24.17,24.17a309.58,309.58,0,0,0,29.48-14.14l-64.16-63.47A309.4,309.4,0,0,0,176.56,273.78Z"/><polygon class="cls-12" points="241.71 259.34 225.16 321.86 220.45 318.76 217.21 322.55 201.09 306.6 241.71 259.34"/><line class="cls-13" x1="315.42" y1="104.53" x2="393.61" y2="181.9"/><path class="cls-6" d="M402.93,94.5s-9.86-8.07-51.43-1.33a131.93,131.93,0,0,0-36.08,11.36l78.19,77.37a130.57,130.57,0,0,0,11.08-36.1C411.1,104.27,402.93,94.5,402.93,94.5Z"/><g class="cls-14"><rect class="cls-6" x="346.02" y="84.57" width="5.68" height="131.77" transform="translate(-2.74 294.39) rotate(-45.59)"/><rect class="cls-6" x="340.52" y="92.73" width="3.78" height="131.77" transform="translate(-10.51 292.24) rotate(-45.59)"/></g><line class="cls-10" x1="190.48" y1="244.24" x2="254.64" y2="307.72"/><path class="cls-6" d="M241.38,257.05s-3.59-5.54-38.21,29.29-64.14,68.2-61.39,70.92,35.95-27,70.56-61.85S241.38,257.05,241.38,257.05Z"/><path class="cls-7" d="M241.38,257.05s-3.59-5.54-38.21,29.29-64.14,68.2-61.39,70.92c0,0,9.68-13.9,35.66-41.57S233.21,257.78,241.38,257.05Z"/><circle class="cls-15" cx="292.72" cy="206" r="43.08" transform="translate(49.27 468.4) rotate(-82.28)"/><circle class="cls-16" cx="292.39" cy="204.71" r="42.84" transform="translate(-0.62 0.89) rotate(-0.17)"/><circle class="cls-17" cx="292.92" cy="205.23" r="42.32" transform="translate(-0.66 0.94) rotate(-0.18)"/><circle class="cls-18" cx="292.15" cy="204.71" r="33.07" transform="translate(-1.19 1.71) rotate(-0.34)"/><circle class="cls-19" cx="292.39" cy="205.35" r="31.73" transform="translate(-1 1.44) rotate(-0.28)"/><g class="cls-20"><rect class="cls-21" x="250.54" y="195.25" width="76.88" height="12.48" transform="translate(-56.77 133.92) rotate(-23.83)"/><rect class="cls-22" x="256.3" y="213.18" width="76.88" height="6.28" transform="translate(-62.27 137.51) rotate(-23.83)"/></g><path class="cls-23" d="M265.37,180.88a1.81,1.81,0,1,0-2.14,1.39A1.8,1.8,0,0,0,265.37,180.88Z"/><path class="cls-23" d="M259.09,190.77a1.81,1.81,0,1,0-2.14,1.4A1.8,1.8,0,0,0,259.09,190.77Z"/><path class="cls-23" d="M272.49,174a1.81,1.81,0,1,0-2.14,1.4A1.81,1.81,0,0,0,272.49,174Z"/><path class="cls-23" d="M257.47,212.21a1.81,1.81,0,1,0-.23,2.54A1.8,1.8,0,0,0,257.47,212.21Z"/><path class="cls-23" d="M261.33,223.27a1.81,1.81,0,1,0-.23,2.55A1.8,1.8,0,0,0,261.33,223.27Z"/><path class="cls-23" d="M256.74,200.63a1.81,1.81,0,1,0-.24,2.54A1.81,1.81,0,0,0,256.74,200.63Z"/><path class="cls-23" d="M276.45,237.93a1.81,1.81,0,1,0,1.86,1.75A1.81,1.81,0,0,0,276.45,237.93Z"/><path class="cls-23" d="M287.55,241.69a1.81,1.81,0,1,0,1.86,1.75A1.81,1.81,0,0,0,287.55,241.69Z"/><path class="cls-23" d="M266.86,231.39a1.81,1.81,0,1,0,1.87,1.75A1.8,1.8,0,0,0,266.86,231.39Z"/><path class="cls-23" d="M308.63,238.56a1.81,1.81,0,1,0,2.9,2.15,1.81,1.81,0,0,0-2.9-2.15Z"/><path class="cls-23" d="M317.9,232.27a1.81,1.81,0,1,0,2.53-.38A1.81,1.81,0,0,0,317.9,232.27Z"/><path class="cls-23" d="M297.68,241.64a1.81,1.81,0,1,0,2.53-.38A1.82,1.82,0,0,0,297.68,241.64Z"/><path class="cls-23" d="M327.52,214.19a1.8,1.8,0,1,0,1.32-2.18A1.81,1.81,0,0,0,327.52,214.19Z"/><path class="cls-23" d="M328.73,203.46a1.81,1.81,0,1,0,1.32-2.19A1.81,1.81,0,0,0,328.73,203.46Z"/><path class="cls-23" d="M323.84,224.93a1.8,1.8,0,0,0,2.18,1.32,1.81,1.81,0,1,0-2.18-1.32Z"/><path class="cls-23" d="M322.51,183.67a1.81,1.81,0,0,0,1.47-3.3,1.81,1.81,0,1,0-1.47,3.3Z"/><path class="cls-23" d="M314.3,175.52a1.82,1.82,0,0,0,2.39-.92,1.81,1.81,0,1,0-2.39.92Z"/><path class="cls-23" d="M327.3,193.74a1.8,1.8,0,1,0-.91-2.38A1.81,1.81,0,0,0,327.3,193.74Z"/><circle class="cls-23" cx="292.29" cy="167.21" r="1.81" transform="translate(54.06 405.19) rotate(-74.74)"/><path class="cls-23" d="M281.92,170.77a1.8,1.8,0,1,0-2.44-.77A1.81,1.81,0,0,0,281.92,170.77Z"/><circle class="cls-23" cx="303.99" cy="168.86" r="1.81" transform="translate(27.44 379.68) rotate(-66.37)"/><path class="cls-16" d="M265,180.5a1.81,1.81,0,1,0-2.14,1.39A1.8,1.8,0,0,0,265,180.5Z"/><path class="cls-16" d="M258.71,190.39a1.81,1.81,0,1,0-2.14,1.4A1.8,1.8,0,0,0,258.71,190.39Z"/><path class="cls-16" d="M272.11,173.66a1.81,1.81,0,1,0-2.14,1.4A1.81,1.81,0,0,0,272.11,173.66Z"/><path class="cls-16" d="M257.09,211.83a1.81,1.81,0,1,0-.23,2.54A1.8,1.8,0,0,0,257.09,211.83Z"/><path class="cls-16" d="M261,222.89a1.81,1.81,0,1,0-.23,2.55A1.8,1.8,0,0,0,261,222.89Z"/><path class="cls-16" d="M256.36,200.25a1.81,1.81,0,1,0-.24,2.54A1.81,1.81,0,0,0,256.36,200.25Z"/><path class="cls-16" d="M276.07,237.55a1.81,1.81,0,1,0,1.86,1.75A1.81,1.81,0,0,0,276.07,237.55Z"/><path class="cls-16" d="M287.17,241.31a1.81,1.81,0,1,0,1.86,1.75A1.81,1.81,0,0,0,287.17,241.31Z"/><path class="cls-16" d="M266.48,231a1.81,1.81,0,1,0,1.87,1.75A1.8,1.8,0,0,0,266.48,231Z"/><path class="cls-16" d="M308.25,238.18a1.81,1.81,0,1,0,2.9,2.15,1.81,1.81,0,0,0-2.9-2.15Z"/><path class="cls-16" d="M317.52,231.89a1.81,1.81,0,1,0,2.53-.38A1.81,1.81,0,0,0,317.52,231.89Z"/><path class="cls-16" d="M297.3,241.26a1.81,1.81,0,1,0,2.53-.38A1.82,1.82,0,0,0,297.3,241.26Z"/><path class="cls-16" d="M327.14,213.81a1.8,1.8,0,1,0,1.32-2.18A1.81,1.81,0,0,0,327.14,213.81Z"/><path class="cls-16" d="M328.35,203.08a1.81,1.81,0,1,0,1.32-2.19A1.81,1.81,0,0,0,328.35,203.08Z"/><path class="cls-16" d="M323.46,224.55a1.8,1.8,0,0,0,2.18,1.32,1.81,1.81,0,1,0-2.18-1.32Z"/><path class="cls-16" d="M322.13,183.29a1.81,1.81,0,0,0,1.47-3.3,1.81,1.81,0,1,0-1.47,3.3Z"/><circle class="cls-16" cx="314.66" cy="173.49" r="1.81" transform="translate(19.86 378.91) rotate(-63.74)"/><path class="cls-16" d="M326.92,193.36A1.8,1.8,0,1,0,326,191,1.81,1.81,0,0,0,326.92,193.36Z"/><circle class="cls-16" cx="291.91" cy="166.83" r="1.81" transform="translate(54.13 404.53) rotate(-74.74)"/><path class="cls-16" d="M281.54,170.39a1.8,1.8,0,1,0-2.44-.77A1.81,1.81,0,0,0,281.54,170.39Z"/><circle class="cls-16" cx="303.61" cy="168.48" r="1.81" transform="translate(27.58 379.12) rotate(-66.37)"/><rect class="cls-24" x="261.54" y="179.94" width="3.37" height="0.36" transform="translate(-50.27 238.88) rotate(-45)"/><rect class="cls-24" x="255.26" y="189.84" width="3.37" height="0.36" transform="translate(-59.11 237.34) rotate(-45)"/><rect class="cls-24" x="268.66" y="173.11" width="3.37" height="0.36" transform="translate(-43.35 241.92) rotate(-45)"/><rect class="cls-24" x="254.02" y="212.8" width="3.37" height="0.36" transform="translate(-75.71 243.19) rotate(-45)"/><rect class="cls-24" x="257.88" y="223.87" width="3.37" height="0.36" transform="translate(-82.4 249.16) rotate(-45)"/><rect class="cls-24" x="253.28" y="201.22" width="3.37" height="0.36" transform="translate(-67.74 239.28) rotate(-45)"/><rect class="cls-24" x="274.44" y="239.18" width="3.37" height="0.36" transform="translate(-88.38 265.36) rotate(-45)"/><rect class="cls-24" x="285.54" y="242.93" width="3.37" height="0.36" transform="translate(-87.78 274.31) rotate(-45)"/><rect class="cls-24" x="264.86" y="232.63" width="3.37" height="0.36" transform="translate(-86.56 256.66) rotate(-45)"/><rect class="cls-24" x="308.02" y="239.08" width="3.37" height="0.36" transform="translate(-78.47 289.07) rotate(-45)"/><rect class="cls-24" x="317.29" y="232.79" width="3.37" height="0.36" transform="translate(-71.31 293.77) rotate(-45)"/><rect class="cls-24" x="297.07" y="242.15" width="3.37" height="0.36" transform="translate(-83.85 282.23) rotate(-45)"/><rect class="cls-24" x="327.2" y="213.2" width="3.37" height="0.36" transform="translate(-54.55 295.06) rotate(-45)"/><rect class="cls-24" x="328.42" y="202.47" width="3.37" height="0.36" transform="translate(-46.61 292.77) rotate(-45)"/><rect class="cls-24" x="323.52" y="223.93" width="3.37" height="0.36" transform="translate(-63.22 295.61) rotate(-45)"/><rect class="cls-24" x="321.18" y="181.46" width="3.37" height="0.36" transform="translate(-33.88 281.5) rotate(-45)"/><rect class="cls-24" x="312.97" y="173.3" width="3.37" height="0.36" transform="translate(-30.51 273.31) rotate(-45)"/><rect class="cls-24" x="325.97" y="191.53" width="3.37" height="0.36" transform="translate(-39.59 287.84) rotate(-45)"/><rect class="cls-24" x="290.22" y="166.65" width="3.37" height="0.36" transform="translate(-32.46 255.27) rotate(-45)"/><rect class="cls-24" x="279.02" y="168.61" width="3.37" height="0.36" transform="translate(-37.13 247.92) rotate(-45)"/><rect class="cls-24" x="301.92" y="168.3" width="3.37" height="0.36" transform="translate(-30.21 264.03) rotate(-45)"/><path class="cls-7" d="M402.93,94.5s-9.86-8.07-51.43-1.33c-43.91,7.12-71.77,34.12-90.75,52.89-24.56,24.28-65.05,80.15-84.19,127.72h0S264.91,88.42,402.93,94.5Z"/><polygon class="cls-7" points="181.62 278.69 177.25 282.99 175.71 281.49 180.01 277.16 181.62 278.69"/><g class="cls-25"><g class="cls-26"><path class="cls-27" d="M225.16,321.86S401.43,232.53,402.93,94.5l49.75,21.83L288.05,369.84S254.86,357.38,225.16,321.86Z"/></g></g><path class="cls-28" d="M225.16,321.86l3.48,12.67s33.9-16.71,54.68-43.73h0S245.8,313.3,225.16,321.86Z"/><path class="cls-7" d="M209.81,372.68c10.42-10.21,14.33-20.07,15-21.95a18.92,18.92,0,0,1-1.27,2.45,77.19,77.19,0,0,1-10.68,14.34c-6.26,6.93-15.33,16.14-16.66,20.11a1.56,1.56,0,0,0,.26,1.73h0S198.24,384,209.81,372.68Z"/></g></g></svg>